<?xml version="1.0" standalone="no"?>
<!DOCTYPE svg PUBLIC "-//W3C//DTD SVG 20010904//EN"
 "http://www.w3.org/TR/2001/REC-SVG-20010904/DTD/svg10.dtd">
<svg version="1.0" xmlns="http://www.w3.org/2000/svg"
 width="1024.000000pt" height="1024.000000pt" viewBox="0 0 1024.000000 1024.000000"
 preserveAspectRatio="xMidYMid meet">
<metadata>
Created by potrace 1.15, written by Peter Selinger 2001-2017
</metadata>
<g transform="translate(0.000000,1024.000000) scale(0.100000,-0.100000)"
fill="#000000" stroke="none">
<path d="M4715 9829 c-725 -48 -1448 -281 -2064 -665 -266 -166 -479 -332
-746 -581 -447 -416 -789 -868 -1035 -1368 -243 -493 -376 -947 -446 -1525
-21 -182 -30 -732 -15 -951 76 -1075 484 -2006 1233 -2819 159 -173 470 -476
618 -604 709 -611 1573 -991 2465 -1085 255 -27 324 -31 588 -31 538 0 953 60
1429 204 926 281 1789 908 2412 1750 380 513 641 1082 775 1691 75 339 101
574 108 955 8 430 -19 753 -92 1115 -155 767 -475 1415 -1017 2057 -141 166
-581 607 -752 753 -782 668 -1661 1031 -2676 1105 -158 12 -598 11 -785 -1z
m2125 -3719 l0 -1850 -56 0 -55 0 -101 208 c-55 114 -140 290 -189 391 -49
101 -91 182 -93 180 -3 -3 74 -583 98 -741 l6 -38 -1522 0 -1523 0 -418 418
-417 417 0 1015 0 1015 417 417 418 418 1717 0 1718 0 0 -1850z m-1718 -3462
l-532 -533 0 1065 0 1065 532 -533 533 -532 -533 -532z m538 -568 l0 -90 -92
0 -93 0 90 90 c49 50 91 90 92 90 2 0 3 -40 3 -90z m0 -1130 l0 -160 50 0 50
0 0 -174 c0 -158 -2 -175 -17 -180 -149 -41 -1104 -42 -1245 0 -16 5 -18 22
-18 180 l0 174 55 0 55 0 0 160 0 160 535 0 535 0 0 -160z"/>
</g>
</svg>
